<mxfile host="app.diagrams.net" modified="2020-09-20T01:06:34.429Z" agent="5.0 (X11; Linux x86_64) AppleWebKit/537.36 (KHTML, like Gecko) Chrome/85.0.4183.102 Safari/537.36" etag="UmWZl_ho0vcalsqzuugu" version="13.7.3" type="github">
  <diagram id="ipld5fezim_T0jKljHli" name="Page-1">
    <mxGraphModel dx="1956" dy="1878" grid="1" gridSize="10" guides="1" tooltips="1" connect="1" arrows="1" fold="1" page="1" pageScale="1" pageWidth="827" pageHeight="1169" math="0" shadow="0">
      <root>
        <mxCell id="0" />
        <mxCell id="1" parent="0" />
        <mxCell id="rLvqkm5eqIBtwHMpg6Mu-1" value="&lt;h1&gt;constructor&lt;/h1&gt;" style="rounded=1;whiteSpace=wrap;html=1;fillColor=#f8cecc;strokeColor=#b85450;" parent="1" vertex="1">
          <mxGeometry x="-110" y="-50" width="280" height="50" as="geometry" />
        </mxCell>
        <mxCell id="rLvqkm5eqIBtwHMpg6Mu-2" value="" style="endArrow=classic;html=1;exitX=1;exitY=0.5;exitDx=0;exitDy=0;fillColor=#f8cecc;strokeColor=#b85450;entryX=0.003;entryY=0.471;entryDx=0;entryDy=0;entryPerimeter=0;" parent="1" source="rLvqkm5eqIBtwHMpg6Mu-1" edge="1" target="ZnqrmkYkeixfrDR7guCQ-9">
          <mxGeometry width="50" height="50" relative="1" as="geometry">
            <mxPoint x="390" y="240" as="sourcePoint" />
            <mxPoint x="340" y="65" as="targetPoint" />
            <Array as="points" />
          </mxGeometry>
        </mxCell>
        <mxCell id="rLvqkm5eqIBtwHMpg6Mu-4" value="&lt;h1&gt;render&lt;/h1&gt;" style="rounded=1;whiteSpace=wrap;html=1;fillColor=#f8cecc;strokeColor=#b85450;" parent="1" vertex="1">
          <mxGeometry x="-110" y="130" width="280" height="50" as="geometry" />
        </mxCell>
        <mxCell id="rLvqkm5eqIBtwHMpg6Mu-5" value="" style="shape=flexArrow;endArrow=classic;html=1;" parent="1" source="rLvqkm5eqIBtwHMpg6Mu-1" target="rLvqkm5eqIBtwHMpg6Mu-4" edge="1">
          <mxGeometry width="50" height="50" relative="1" as="geometry">
            <mxPoint x="200" y="130" as="sourcePoint" />
            <mxPoint x="250" y="80" as="targetPoint" />
          </mxGeometry>
        </mxCell>
        <mxCell id="rLvqkm5eqIBtwHMpg6Mu-7" value="" style="endArrow=classic;html=1;exitX=1;exitY=0.5;exitDx=0;exitDy=0;fillColor=#f8cecc;strokeColor=#b85450;entryX=-0.003;entryY=0.471;entryDx=0;entryDy=0;entryPerimeter=0;" parent="1" source="rLvqkm5eqIBtwHMpg6Mu-4" edge="1" target="ZnqrmkYkeixfrDR7guCQ-26">
          <mxGeometry width="50" height="50" relative="1" as="geometry">
            <mxPoint x="370" y="75" as="sourcePoint" />
            <mxPoint x="350" y="175" as="targetPoint" />
            <Array as="points" />
          </mxGeometry>
        </mxCell>
        <mxCell id="ZnqrmkYkeixfrDR7guCQ-1" value="&lt;h1&gt;componentDidMount&lt;/h1&gt;" style="rounded=1;whiteSpace=wrap;html=1;fillColor=#f8cecc;strokeColor=#b85450;" vertex="1" parent="1">
          <mxGeometry x="-110" y="310" width="280" height="50" as="geometry" />
        </mxCell>
        <mxCell id="ZnqrmkYkeixfrDR7guCQ-2" value="" style="shape=flexArrow;endArrow=classic;html=1;exitX=0.5;exitY=1;exitDx=0;exitDy=0;" edge="1" parent="1" source="rLvqkm5eqIBtwHMpg6Mu-4" target="ZnqrmkYkeixfrDR7guCQ-1">
          <mxGeometry width="50" height="50" relative="1" as="geometry">
            <mxPoint x="241" y="210" as="sourcePoint" />
            <mxPoint x="250" y="160" as="targetPoint" />
          </mxGeometry>
        </mxCell>
        <mxCell id="ZnqrmkYkeixfrDR7guCQ-5" value="" style="endArrow=classic;html=1;exitX=1;exitY=0.5;exitDx=0;exitDy=0;fillColor=#f8cecc;strokeColor=#b85450;entryX=-0.011;entryY=0.429;entryDx=0;entryDy=0;entryPerimeter=0;" edge="1" parent="1" source="ZnqrmkYkeixfrDR7guCQ-1" target="ZnqrmkYkeixfrDR7guCQ-14">
          <mxGeometry width="50" height="50" relative="1" as="geometry">
            <mxPoint x="370" y="185" as="sourcePoint" />
            <mxPoint x="340" y="305" as="targetPoint" />
            <Array as="points" />
          </mxGeometry>
        </mxCell>
        <mxCell id="ZnqrmkYkeixfrDR7guCQ-9" value="&lt;pre class=&quot;tw-data-text tw-text-large XcVN5d tw-ta&quot; id=&quot;tw-target-text&quot; dir=&quot;ltr&quot; style=&quot;line-height: 36px ; border: none ; padding: 2px 0px 2px 0.14em ; position: relative ; margin-top: -2px ; margin-bottom: -2px ; resize: none ; font-family: inherit ; overflow: hidden ; text-align: left ; width: 277px ; overflow-wrap: break-word ; color: rgb(32 , 33 , 36)&quot;&gt;&lt;span lang=&quot;en&quot;&gt;&lt;font style=&quot;font-size: 14px&quot;&gt;The first thing Render does when it starts&lt;/font&gt;&lt;/span&gt;&lt;/pre&gt;" style="text;html=1;align=center;verticalAlign=middle;resizable=0;points=[];autosize=1;strokeWidth=2;fillColor=#f5f5f5;strokeColor=#666666;fontColor=#333333;" vertex="1" parent="1">
          <mxGeometry x="360" y="-10" width="290" height="40" as="geometry" />
        </mxCell>
        <mxCell id="ZnqrmkYkeixfrDR7guCQ-12" value="&lt;pre class=&quot;tw-data-text tw-text-large XcVN5d tw-ta&quot; id=&quot;tw-target-text&quot; dir=&quot;ltr&quot; style=&quot;line-height: 36px ; border: none ; padding: 2px 0px 2px 0.14em ; position: relative ; margin-top: -2px ; margin-bottom: -2px ; resize: none ; font-family: inherit ; overflow: hidden ; text-align: left ; width: 277px ; overflow-wrap: break-word ; color: rgb(32 , 33 , 36)&quot;&gt;&lt;span lang=&quot;en&quot;&gt;&lt;font style=&quot;font-size: 14px&quot;&gt;Another thing to do is Render, and it is mandatory&lt;/font&gt;&lt;/span&gt;&lt;/pre&gt;" style="text;html=1;align=center;verticalAlign=middle;resizable=0;points=[];autosize=1;strokeWidth=2;fillColor=#f5f5f5;strokeColor=#666666;fontColor=#333333;" vertex="1" parent="1">
          <mxGeometry x="360" y="168" width="290" height="40" as="geometry" />
        </mxCell>
        <mxCell id="ZnqrmkYkeixfrDR7guCQ-14" value="&lt;pre class=&quot;tw-data-text tw-text-large XcVN5d tw-ta&quot; id=&quot;tw-target-text&quot; dir=&quot;ltr&quot; style=&quot;line-height: 36px ; border: none ; padding: 2px 0px 2px 0.14em ; position: relative ; margin-top: -2px ; margin-bottom: -2px ; resize: none ; font-family: inherit ; overflow: hidden ; text-align: left ; width: 277px ; overflow-wrap: break-word ; color: rgb(32 , 33 , 36)&quot;&gt;&lt;span lang=&quot;en&quot;&gt;&lt;font style=&quot;font-size: 14px&quot;&gt;good place to data loading&lt;/font&gt;&lt;/span&gt;&lt;/pre&gt;" style="text;html=1;align=center;verticalAlign=middle;resizable=0;points=[];autosize=1;strokeWidth=2;fillColor=#f5f5f5;strokeColor=#666666;fontColor=#333333;perimeterSpacing=0;glass=0;rounded=0;sketch=0;shadow=0;" vertex="1" parent="1">
          <mxGeometry x="360" y="290" width="290" height="40" as="geometry" />
        </mxCell>
        <mxCell id="ZnqrmkYkeixfrDR7guCQ-15" value="&lt;h1&gt;componentDidUpdate&lt;/h1&gt;" style="rounded=1;whiteSpace=wrap;html=1;fillColor=#f8cecc;strokeColor=#b85450;" vertex="1" parent="1">
          <mxGeometry x="-110" y="480" width="280" height="50" as="geometry" />
        </mxCell>
        <mxCell id="ZnqrmkYkeixfrDR7guCQ-16" value="" style="shape=flexArrow;endArrow=classic;html=1;exitX=0.5;exitY=1;exitDx=0;exitDy=0;" edge="1" parent="1">
          <mxGeometry width="50" height="50" relative="1" as="geometry">
            <mxPoint x="29.58" y="530" as="sourcePoint" />
            <mxPoint x="28" y="640" as="targetPoint" />
          </mxGeometry>
        </mxCell>
        <mxCell id="ZnqrmkYkeixfrDR7guCQ-18" value="" style="endArrow=classic;html=1;exitX=1;exitY=0.5;exitDx=0;exitDy=0;fillColor=#f8cecc;strokeColor=#b85450;entryX=-0.014;entryY=0.617;entryDx=0;entryDy=0;entryPerimeter=0;" edge="1" parent="1" target="ZnqrmkYkeixfrDR7guCQ-19">
          <mxGeometry width="50" height="50" relative="1" as="geometry">
            <mxPoint x="170" y="499.16999999999996" as="sourcePoint" />
            <mxPoint x="340" y="499.16999999999996" as="targetPoint" />
            <Array as="points" />
          </mxGeometry>
        </mxCell>
        <mxCell id="ZnqrmkYkeixfrDR7guCQ-19" value="&lt;pre class=&quot;tw-data-text tw-text-large XcVN5d tw-ta&quot; id=&quot;tw-target-text&quot; dir=&quot;ltr&quot; style=&quot;line-height: 36px ; border: none ; padding: 2px 0px 2px 0.14em ; position: relative ; margin-top: -2px ; margin-bottom: -2px ; resize: none ; font-family: inherit ; overflow: hidden ; text-align: left ; width: 277px ; overflow-wrap: break-word ; color: rgb(32 , 33 , 36)&quot;&gt;&lt;span style=&quot;font-size: 14px&quot;&gt;good place to do more data loading when state / props change&lt;/span&gt;&lt;/pre&gt;" style="text;html=1;align=center;verticalAlign=middle;resizable=0;points=[];autosize=1;strokeWidth=2;fillColor=#f5f5f5;strokeColor=#666666;fontColor=#333333;perimeterSpacing=0;glass=0;rounded=0;sketch=0;shadow=0;" vertex="1" parent="1">
          <mxGeometry x="360" y="460" width="290" height="40" as="geometry" />
        </mxCell>
        <mxCell id="ZnqrmkYkeixfrDR7guCQ-20" value="&lt;h1&gt;&lt;font style=&quot;font-size: 23px&quot;&gt;componentWillUnmount&lt;/font&gt;&lt;/h1&gt;" style="rounded=1;whiteSpace=wrap;html=1;fillColor=#f8cecc;strokeColor=#b85450;" vertex="1" parent="1">
          <mxGeometry x="-100" y="640" width="280" height="50" as="geometry" />
        </mxCell>
        <mxCell id="ZnqrmkYkeixfrDR7guCQ-21" value="" style="shape=flexArrow;endArrow=classic;html=1;entryX=0.5;entryY=0;entryDx=0;entryDy=0;exitX=0.5;exitY=1;exitDx=0;exitDy=0;" edge="1" parent="1" source="ZnqrmkYkeixfrDR7guCQ-1" target="ZnqrmkYkeixfrDR7guCQ-15">
          <mxGeometry width="50" height="50" relative="1" as="geometry">
            <mxPoint x="30" y="370" as="sourcePoint" />
            <mxPoint x="20" y="440" as="targetPoint" />
            <Array as="points">
              <mxPoint x="30" y="400" />
              <mxPoint x="30" y="390" />
            </Array>
          </mxGeometry>
        </mxCell>
        <mxCell id="ZnqrmkYkeixfrDR7guCQ-23" value="&lt;pre class=&quot;tw-data-text tw-text-large XcVN5d tw-ta&quot; id=&quot;tw-target-text&quot; dir=&quot;ltr&quot; style=&quot;line-height: 36px ; border: none ; padding: 2px 0px 2px 0.14em ; position: relative ; margin-top: -2px ; margin-bottom: -2px ; resize: none ; font-family: inherit ; overflow: hidden ; text-align: left ; width: 277px ; overflow-wrap: break-word ; color: rgb(32 , 33 , 36)&quot;&gt;&lt;span lang=&quot;en&quot;&gt;&lt;font style=&quot;font-size: 14px&quot;&gt;good place to do cleanup&lt;/font&gt;&lt;/span&gt;&lt;/pre&gt;" style="text;html=1;align=center;verticalAlign=middle;resizable=0;points=[];autosize=1;strokeWidth=2;fillColor=#f5f5f5;strokeColor=#666666;fontColor=#333333;perimeterSpacing=0;glass=0;rounded=0;sketch=0;shadow=0;" vertex="1" parent="1">
          <mxGeometry x="370" y="630" width="290" height="40" as="geometry" />
        </mxCell>
        <mxCell id="ZnqrmkYkeixfrDR7guCQ-24" value="" style="endArrow=classic;html=1;exitX=1;exitY=0.5;exitDx=0;exitDy=0;fillColor=#f8cecc;strokeColor=#b85450;entryX=0.003;entryY=0.408;entryDx=0;entryDy=0;entryPerimeter=0;" edge="1" parent="1" source="rLvqkm5eqIBtwHMpg6Mu-1" target="ZnqrmkYkeixfrDR7guCQ-25">
          <mxGeometry width="50" height="50" relative="1" as="geometry">
            <mxPoint x="170" y="50.00000000000006" as="sourcePoint" />
            <mxPoint x="330" as="targetPoint" />
            <Array as="points" />
          </mxGeometry>
        </mxCell>
        <mxCell id="ZnqrmkYkeixfrDR7guCQ-25" value="&lt;pre class=&quot;tw-data-text tw-text-large XcVN5d tw-ta&quot; id=&quot;tw-target-text&quot; dir=&quot;ltr&quot; style=&quot;line-height: 36px ; border: none ; padding: 2px 0px 2px 0.14em ; position: relative ; margin-top: -2px ; margin-bottom: -2px ; resize: none ; font-family: inherit ; overflow: hidden ; text-align: left ; width: 277px ; overflow-wrap: break-word ; color: rgb(32 , 33 , 36)&quot;&gt;&lt;span lang=&quot;en&quot;&gt;&lt;font style=&quot;font-size: 14px&quot;&gt;good place to do one time setup&lt;/font&gt;&lt;/span&gt;&lt;/pre&gt;" style="text;html=1;align=center;verticalAlign=middle;resizable=0;points=[];autosize=1;strokeWidth=2;fillColor=#f5f5f5;strokeColor=#666666;fontColor=#333333;" vertex="1" parent="1">
          <mxGeometry x="360" y="-70" width="290" height="40" as="geometry" />
        </mxCell>
        <mxCell id="ZnqrmkYkeixfrDR7guCQ-26" value="&lt;pre class=&quot;tw-data-text tw-text-large XcVN5d tw-ta&quot; id=&quot;tw-target-text&quot; dir=&quot;ltr&quot; style=&quot;line-height: 36px ; border: none ; padding: 2px 0px 2px 0.14em ; position: relative ; margin-top: -2px ; margin-bottom: -2px ; resize: none ; font-family: inherit ; overflow: hidden ; text-align: left ; width: 277px ; overflow-wrap: break-word ; color: rgb(32 , 33 , 36)&quot;&gt;&lt;span lang=&quot;en&quot;&gt;&lt;font style=&quot;font-size: 14px&quot;&gt;avoid doing anything besides returning jsx&lt;/font&gt;&lt;/span&gt;&lt;/pre&gt;" style="text;html=1;align=center;verticalAlign=middle;resizable=0;points=[];autosize=1;strokeWidth=2;fillColor=#f5f5f5;strokeColor=#666666;fontColor=#333333;" vertex="1" parent="1">
          <mxGeometry x="360" y="110" width="290" height="40" as="geometry" />
        </mxCell>
        <mxCell id="ZnqrmkYkeixfrDR7guCQ-27" value="" style="endArrow=classic;html=1;exitX=1;exitY=0.5;exitDx=0;exitDy=0;fillColor=#f8cecc;strokeColor=#b85450;entryX=-0.011;entryY=0.492;entryDx=0;entryDy=0;entryPerimeter=0;" edge="1" parent="1" source="rLvqkm5eqIBtwHMpg6Mu-4" target="ZnqrmkYkeixfrDR7guCQ-12">
          <mxGeometry width="50" height="50" relative="1" as="geometry">
            <mxPoint x="180" y="185.00000000000023" as="sourcePoint" />
            <mxPoint x="369.1300000000001" y="158.84000000000037" as="targetPoint" />
            <Array as="points" />
          </mxGeometry>
        </mxCell>
        <mxCell id="ZnqrmkYkeixfrDR7guCQ-28" value="&lt;pre class=&quot;tw-data-text tw-text-large XcVN5d tw-ta&quot; id=&quot;tw-target-text&quot; dir=&quot;ltr&quot; style=&quot;line-height: 36px ; border: none ; padding: 2px 0px 2px 0.14em ; position: relative ; margin-top: -2px ; margin-bottom: -2px ; resize: none ; font-family: inherit ; overflow: hidden ; text-align: left ; width: 277px ; overflow-wrap: break-word ; color: rgb(32 , 33 , 36)&quot;&gt;&lt;span lang=&quot;en&quot;&gt;&lt;font style=&quot;font-size: 14px&quot;&gt;Butrender once alone in the application for the first time&lt;/font&gt;&lt;/span&gt;&lt;/pre&gt;" style="text;html=1;align=center;verticalAlign=middle;resizable=0;points=[];autosize=1;strokeWidth=2;fillColor=#f5f5f5;strokeColor=#666666;fontColor=#333333;perimeterSpacing=0;glass=0;rounded=0;sketch=0;shadow=0;" vertex="1" parent="1">
          <mxGeometry x="360" y="350" width="290" height="40" as="geometry" />
        </mxCell>
        <mxCell id="ZnqrmkYkeixfrDR7guCQ-29" value="" style="endArrow=classic;html=1;exitX=1;exitY=0.5;exitDx=0;exitDy=0;fillColor=#f8cecc;strokeColor=#b85450;entryX=-0.006;entryY=0.512;entryDx=0;entryDy=0;entryPerimeter=0;" edge="1" parent="1" source="ZnqrmkYkeixfrDR7guCQ-1" target="ZnqrmkYkeixfrDR7guCQ-28">
          <mxGeometry width="50" height="50" relative="1" as="geometry">
            <mxPoint x="180" y="335.0000000000002" as="sourcePoint" />
            <mxPoint x="366.8100000000002" y="312.1600000000003" as="targetPoint" />
            <Array as="points" />
          </mxGeometry>
        </mxCell>
        <mxCell id="ZnqrmkYkeixfrDR7guCQ-31" value="&lt;pre class=&quot;tw-data-text tw-text-large XcVN5d tw-ta&quot; id=&quot;tw-target-text&quot; dir=&quot;ltr&quot; style=&quot;line-height: 36px ; border: none ; padding: 2px 0px 2px 0.14em ; position: relative ; margin-top: -2px ; margin-bottom: -2px ; resize: none ; font-family: inherit ; overflow: hidden ; text-align: left ; width: 277px ; overflow-wrap: break-word ; color: rgb(32 , 33 , 36)&quot;&gt;&lt;span lang=&quot;en&quot;&gt;&lt;font style=&quot;font-size: 14px&quot;&gt;Render every time a change occurs&lt;/font&gt;&lt;/span&gt;&lt;/pre&gt;" style="text;html=1;align=center;verticalAlign=middle;resizable=0;points=[];autosize=1;strokeWidth=2;fillColor=#f5f5f5;strokeColor=#666666;fontColor=#333333;perimeterSpacing=0;glass=0;rounded=0;sketch=0;shadow=0;" vertex="1" parent="1">
          <mxGeometry x="360" y="510" width="290" height="40" as="geometry" />
        </mxCell>
        <mxCell id="ZnqrmkYkeixfrDR7guCQ-32" value="" style="endArrow=classic;html=1;exitX=1;exitY=0.5;exitDx=0;exitDy=0;fillColor=#f8cecc;strokeColor=#b85450;entryX=-0.011;entryY=0.533;entryDx=0;entryDy=0;entryPerimeter=0;" edge="1" parent="1" source="ZnqrmkYkeixfrDR7guCQ-20" target="ZnqrmkYkeixfrDR7guCQ-23">
          <mxGeometry width="50" height="50" relative="1" as="geometry">
            <mxPoint x="190" y="640.0000000000001" as="sourcePoint" />
            <mxPoint x="375.9400000000003" y="625.5100000000003" as="targetPoint" />
            <Array as="points" />
          </mxGeometry>
        </mxCell>
        <mxCell id="ZnqrmkYkeixfrDR7guCQ-33" value="" style="endArrow=classic;html=1;fillColor=#f8cecc;strokeColor=#b85450;entryX=-0.006;entryY=0.512;entryDx=0;entryDy=0;entryPerimeter=0;" edge="1" parent="1">
          <mxGeometry width="50" height="50" relative="1" as="geometry">
            <mxPoint x="170" y="500" as="sourcePoint" />
            <mxPoint x="360" y="530.0000000000002" as="targetPoint" />
            <Array as="points" />
          </mxGeometry>
        </mxCell>
        <mxCell id="ZnqrmkYkeixfrDR7guCQ-34" value="&lt;pre class=&quot;tw-data-text tw-text-large XcVN5d tw-ta&quot; id=&quot;tw-target-text&quot; dir=&quot;ltr&quot; style=&quot;line-height: 36px ; border: none ; padding: 2px 0px 2px 0.14em ; position: relative ; margin-top: -2px ; margin-bottom: -2px ; resize: none ; font-family: inherit ; overflow: hidden ; text-align: left ; width: 277px ; overflow-wrap: break-word ; color: rgb(32 , 33 , 36)&quot;&gt;&lt;span lang=&quot;en&quot;&gt;&lt;font style=&quot;font-size: 14px&quot;&gt;This method is called when the component is removed from the DOM&lt;/font&gt;&lt;/span&gt;&lt;/pre&gt;" style="text;html=1;align=center;verticalAlign=middle;resizable=0;points=[];autosize=1;strokeWidth=2;fillColor=#f5f5f5;strokeColor=#666666;fontColor=#333333;perimeterSpacing=0;glass=0;rounded=0;sketch=0;shadow=0;" vertex="1" parent="1">
          <mxGeometry x="370" y="680" width="290" height="40" as="geometry" />
        </mxCell>
        <mxCell id="ZnqrmkYkeixfrDR7guCQ-35" value="" style="endArrow=classic;html=1;exitX=0.997;exitY=0.643;exitDx=0;exitDy=0;fillColor=#f8cecc;strokeColor=#b85450;entryX=-0.011;entryY=0.533;entryDx=0;entryDy=0;entryPerimeter=0;exitPerimeter=0;" edge="1" parent="1" source="ZnqrmkYkeixfrDR7guCQ-20">
          <mxGeometry width="50" height="50" relative="1" as="geometry">
            <mxPoint x="183.19" y="723.68" as="sourcePoint" />
            <mxPoint x="370.00000000000017" y="700.0000000000001" as="targetPoint" />
            <Array as="points" />
          </mxGeometry>
        </mxCell>
      </root>
    </mxGraphModel>
  </diagram>
</mxfile>
